<svg xmlns="http://www.w3.org/2000/svg" width="32" height="24" viewBox="0 0 32 24">
  <path id="_134230_code_coding_html_tag_icon" data-name="134230_code_coding_html_tag_icon" d="M14,6a2.023,2.023,0,0,0-2-2,1.886,1.886,0,0,0-1.38.58L.662,14.538A1.917,1.917,0,0,0,0,16a1.813,1.813,0,0,0,.646,1.447L10.62,27.42A1.886,1.886,0,0,0,12,28a2.022,2.022,0,0,0,2-2,1.9,1.9,0,0,0-.58-1.38L4.8,16l8.62-8.62A1.9,1.9,0,0,0,14,6Zm17.338,8.538L21.38,4.58A1.886,1.886,0,0,0,20,4a2.022,2.022,0,0,0-2,2,1.9,1.9,0,0,0,.58,1.38L27.2,16l-8.62,8.62A1.9,1.9,0,0,0,18,26a2.023,2.023,0,0,0,2,2,1.886,1.886,0,0,0,1.38-.58l9.974-9.973A1.813,1.813,0,0,0,32,16,1.917,1.917,0,0,0,31.338,14.538Z" transform="translate(0 -4)" fill="#5a32a8"/>
</svg>
