<svg version="1.2" xmlns="http://www.w3.org/2000/svg" viewBox="0 0 180 311" width="180" height="311">
	<title>Path 2299 (2)-svg</title>
	<style>
		.s0 { fill: #361e65 } 
	</style>
	<path id="Path_2299" class="s0" d="m106.8 61.4l-50.5 56q3.4-8.2 8.1-15.8 4.7-7.5 10.5-14.3 5.8-6.8 12.6-12.5 6.8-5.8 14.4-10.5 2.4-1.5 4.9-2.9zm116.1 199.1c-9.3 5.7-19.4 10.1-29.9 13-10.6 2.9-21.5 4.3-32.5 4.1-10.9-0.1-21.8-1.9-32.2-5.1-10.5-3.2-20.4-7.9-29.5-14l152.7-169.2q1.2 1.5 2.4 3 1.2 1.5 2.3 3.1 1.1 1.6 2.2 3.2 1 1.6 2 3.2c8 12.9 13.3 27.2 15.7 42.2 2.4 14.9 1.9 30.2-1.6 44.9-3.5 14.7-9.8 28.6-18.7 40.9-8.9 12.3-20.1 22.7-32.9 30.6zm-150.4-25.8c-2.1-2.6-4-5.3-5.9-8.1l149.8-166q4.4 2.3 8.6 5.1l-152.5 169zm3.4 4.1l153.5-170.1q4 2.8 7.8 6.1l-154.5 171q-3.5-3.3-6.8-7zm18.5 16.8q-4-2.9-7.7-6.2l154.4-171.1q3.6 3.3 6.9 7l-153.7 170.2zm24.9-200q2.2-0.9 4.5-1.7 2.3-0.8 4.6-1.5 2.3-0.7 4.6-1.3 2.4-0.7 4.7-1.2l-89.8 99.5q0.2-2.4 0.6-4.8 0.4-2.4 0.9-4.7 0.4-2.4 1-4.7 0.6-2.4 1.2-4.7l67.6-74.9zm-55.6 166.4q-0.7-1.2-1.3-2.3-0.7-1.1-1.3-2.3-0.6-1.1-1.2-2.3-0.6-1.1-1.2-2.3l143.2-158.6c3.3 1.1 6.5 2.5 9.7 4zm122-172.4q1.4 0.3 2.7 0.6 1.4 0.3 2.7 0.7 1.4 0.3 2.7 0.7 1.4 0.4 2.7 0.8l-140.2 155.2q-0.5-1.2-1-2.5-0.6-1.3-1-2.6-0.5-1.3-1-2.6-0.4-1.4-0.8-2.7l133.2-147.6zm-39.6-1.3q1.8-0.3 3.6-0.4 1.7-0.2 3.5-0.4 1.8-0.1 3.6-0.2 1.8-0.1 3.6-0.1l-113 125q-0.1-1.8-0.2-3.6-0.1-1.8-0.2-3.6 0-1.8 0-3.6 0-1.8 0.1-3.5l98.9-109.6zm21.3-1.1q1.5 0.1 3.1 0.2 1.5 0.1 3 0.2 1.5 0.2 3.1 0.4 1.5 0.2 3 0.4l-128.9 142.8q-0.4-1.5-0.7-3-0.3-1.5-0.6-3-0.3-1.5-0.6-3-0.3-1.5-0.5-3l119-132z"/>
</svg>