<svg xmlns="http://www.w3.org/2000/svg" width="26.609" height="34.924" viewBox="0 0 26.609 34.924">
  <g id="Page-1" transform="translate(0 -0.5)">
    <g id="Core" transform="translate(0 0.5)">
      <g id="https">
        <path id="Shape" d="M23.283,11.641H21.62V8.315A8.235,8.235,0,0,0,13.3,0,8.235,8.235,0,0,0,4.989,8.315v3.326H3.326A3.336,3.336,0,0,0,0,14.968V31.6a3.336,3.336,0,0,0,3.326,3.326H23.283A3.336,3.336,0,0,0,26.609,31.6V14.968a3.336,3.336,0,0,0-3.326-3.326ZM13.3,26.609a3.326,3.326,0,1,1,3.326-3.326A3.336,3.336,0,0,1,13.3,26.609ZM18.46,11.641H8.149V8.315a5.155,5.155,0,0,1,10.311,0v3.326Z" fill="#5a32a8" fill-rule="evenodd"/>
      </g>
    </g>
  </g>
</svg>
