<svg xmlns="http://www.w3.org/2000/svg" width="27" height="37.125" viewBox="0 0 27 37.125">
  <path id="_9004771_mobile_phone_smartphone_device_icon" data-name="9004771_mobile_phone_smartphone_device_icon" d="M25.938,1H9.063A5.063,5.063,0,0,0,4,6.063v27a5.063,5.063,0,0,0,5.063,5.063H25.938A5.063,5.063,0,0,0,31,33.063v-27A5.062,5.062,0,0,0,25.938,1ZM15.813,4.375h3.375a1.688,1.688,0,0,1,0,3.375H15.813a1.688,1.688,0,0,1,0-3.375Zm8.438,27H10.75a1.688,1.688,0,0,1,0-3.375h13.5a1.688,1.688,0,0,1,0,3.375Z" transform="translate(-4 -1)" fill="#5a32a8"/>
</svg>
