<svg xmlns="http://www.w3.org/2000/svg" width="29.85" height="27.449" viewBox="0 0 29.85 27.449">
  <g id="_6619620_business_case_portfolio_seo_suitcase_icon" data-name="6619620_business_case_portfolio_seo_suitcase_icon" transform="translate(-3 -4)">
    <path id="Path_2311" data-name="Path 2311" d="M29.3,9.718H26.331a9.122,9.122,0,0,0-16.927,0H6.431A3.37,3.37,0,0,0,3,13.15v.686a7.371,7.371,0,0,0,7.32,7.32H25.531a7.371,7.371,0,0,0,7.32-7.32V13.15A3.54,3.54,0,0,0,29.3,9.718ZM17.868,6.287a6.967,6.967,0,0,1,5.947,3.431H11.921A6.967,6.967,0,0,1,17.868,6.287Z" fill="#5a32a8"/>
    <path id="Path_2312" data-name="Path 2312" d="M25.874,21.417h0V23.7a1.144,1.144,0,0,1-2.287,0V21.417H12.15V23.7a1.081,1.081,0,0,1-1.144,1.144A1.081,1.081,0,0,1,9.862,23.7V21.417h0A9.632,9.632,0,0,1,3,18.1v7.891a3.37,3.37,0,0,0,3.431,3.431H29.3a3.37,3.37,0,0,0,3.431-3.431V18.1A9.632,9.632,0,0,1,25.874,21.417Z" transform="translate(0 2.026)" fill="#5a32a8"/>
  </g>
</svg>
