<svg xmlns="http://www.w3.org/2000/svg" width="32.984" height="32.984" viewBox="0 0 32.984 32.984">
  <path id="Icon_awesome-phone-alt" data-name="Icon awesome-phone-alt" d="M32.043,23.308l-7.215-3.092a1.546,1.546,0,0,0-1.8.445l-3.2,3.9A23.879,23.879,0,0,1,8.414,13.149l3.9-3.2a1.542,1.542,0,0,0,.445-1.8L9.67.935A1.556,1.556,0,0,0,7.9.039L1.2,1.585A1.546,1.546,0,0,0,0,3.092,29.889,29.889,0,0,0,29.892,32.984a1.546,1.546,0,0,0,1.507-1.2l1.546-6.7a1.565,1.565,0,0,0-.9-1.778Z" transform="translate(0 0)" fill="#5a32a8"/>
</svg>
