<svg xmlns="http://www.w3.org/2000/svg" width="324.73" height="324.729" viewBox="0 0 324.73 324.729">
  <path id="Path_2299" data-name="Path 2299" d="M229.26,131.943a114.8,114.8,0,0,0-11.386-69.1L228.3,137.6Q228.835,134.805,229.26,131.943ZM1.23,98.556A115.257,115.257,0,0,0,98.591,229.288a118.181,118.181,0,0,0,15.333,1.211L82.471,4.718a115.257,115.257,0,0,0-81.3,93.838ZM117.6,0l31.452,225.467q4.828-1.478,9.436-3.365L127.653.645c-3.4-.362-6.731-.582-10.065-.645ZM102.491.645l31.767,228.282c3.271-.535,6.495-1.227,9.672-2.029L112.273,0Q107.319.126,102.491.645ZM87.614,3.318l31.61,227.118c3.3-.11,6.589-.377,9.829-.755L97.207,1.368c-3.255.519-6.479,1.164-9.656,1.966ZM224.872,150.94,210.907,50.969A118.606,118.606,0,0,0,198.893,35.95l18.4,132.745a110.078,110.078,0,0,0,7.517-17.739ZM163.54,219.916c3.145-1.463,6.29-3.067,9.263-4.8L143.348,3.444A99.979,99.979,0,0,0,133.11,1.368Zm23.2-14.264L159.262,8.7A110.079,110.079,0,0,0,148.789,4.97l28.842,207.161a110.765,110.765,0,0,0,9.027-6.463Zm26.4-29.5L192.791,29.9a111.464,111.464,0,0,0-11.181-8.948l23.1,166.839a107.29,107.29,0,0,0,8.351-11.622Zm-12.88,16.969-24.6-176.024a114.546,114.546,0,0,0-10.757-5.9L191.423,201.7a107.3,107.3,0,0,0,8.76-8.571Z" transform="translate(148.157 324.729) rotate(-130)" fill="#361e65"/>
</svg>
