<svg xmlns="http://www.w3.org/2000/svg" width="130" height="130" viewBox="0 0 130 130">
  <g id="Group_13447" data-name="Group 13447" transform="translate(-258.578 -656.766)">
    <circle id="Ellipse_1" data-name="Ellipse 1" cx="4" cy="4" r="4" transform="translate(258.578 656.766)" fill="#361e65"/>
    <ellipse id="Ellipse_1-2" data-name="Ellipse 1" cx="3.5" cy="4" rx="3.5" ry="4" transform="translate(279.578 656.766)" fill="#361e65"/>
    <circle id="Ellipse_1-3" data-name="Ellipse 1" cx="4" cy="4" r="4" transform="translate(299.578 656.766)" fill="#361e65"/>
    <ellipse id="Ellipse_1-4" data-name="Ellipse 1" cx="3.5" cy="4" rx="3.5" ry="4" transform="translate(320.578 656.766)" fill="#361e65"/>
    <circle id="Ellipse_1-5" data-name="Ellipse 1" cx="4" cy="4" r="4" transform="translate(340.578 656.766)" fill="#361e65"/>
    <circle id="Ellipse_1-6" data-name="Ellipse 1" cx="4" cy="4" r="4" transform="translate(360.578 656.766)" fill="#361e65"/>
    <circle id="Ellipse_1-7" data-name="Ellipse 1" cx="4" cy="4" r="4" transform="translate(380.578 656.766)" fill="#361e65"/>
    <ellipse id="Ellipse_1-8" data-name="Ellipse 1" cx="4" cy="3.5" rx="4" ry="3.5" transform="translate(258.578 677.766)" fill="#361e65"/>
    <circle id="Ellipse_1-9" data-name="Ellipse 1" cx="3.5" cy="3.5" r="3.5" transform="translate(279.578 677.766)" fill="#361e65"/>
    <ellipse id="Ellipse_1-10" data-name="Ellipse 1" cx="4" cy="3.5" rx="4" ry="3.5" transform="translate(299.578 677.766)" fill="#361e65"/>
    <circle id="Ellipse_1-11" data-name="Ellipse 1" cx="3.5" cy="3.5" r="3.5" transform="translate(320.578 677.766)" fill="#361e65"/>
    <ellipse id="Ellipse_1-12" data-name="Ellipse 1" cx="4" cy="3.5" rx="4" ry="3.5" transform="translate(340.578 677.766)" fill="#361e65"/>
    <ellipse id="Ellipse_1-13" data-name="Ellipse 1" cx="4" cy="3.5" rx="4" ry="3.5" transform="translate(360.578 677.766)" fill="#361e65"/>
    <ellipse id="Ellipse_1-14" data-name="Ellipse 1" cx="4" cy="3.5" rx="4" ry="3.5" transform="translate(380.578 677.766)" fill="#361e65"/>
    <circle id="Ellipse_1-15" data-name="Ellipse 1" cx="4" cy="4" r="4" transform="translate(258.578 697.766)" fill="#361e65"/>
    <ellipse id="Ellipse_1-16" data-name="Ellipse 1" cx="3.5" cy="4" rx="3.5" ry="4" transform="translate(279.578 697.766)" fill="#361e65"/>
    <circle id="Ellipse_1-17" data-name="Ellipse 1" cx="4" cy="4" r="4" transform="translate(299.578 697.766)" fill="#361e65"/>
    <ellipse id="Ellipse_1-18" data-name="Ellipse 1" cx="3.5" cy="4" rx="3.5" ry="4" transform="translate(320.578 697.766)" fill="#361e65"/>
    <circle id="Ellipse_1-19" data-name="Ellipse 1" cx="4" cy="4" r="4" transform="translate(340.578 697.766)" fill="#361e65"/>
    <circle id="Ellipse_1-20" data-name="Ellipse 1" cx="4" cy="4" r="4" transform="translate(360.578 697.766)" fill="#361e65"/>
    <circle id="Ellipse_1-21" data-name="Ellipse 1" cx="4" cy="4" r="4" transform="translate(380.578 697.766)" fill="#361e65"/>
    <ellipse id="Ellipse_1-22" data-name="Ellipse 1" cx="4" cy="3.5" rx="4" ry="3.5" transform="translate(258.578 718.766)" fill="#361e65"/>
    <circle id="Ellipse_1-23" data-name="Ellipse 1" cx="3.5" cy="3.5" r="3.5" transform="translate(279.578 718.766)" fill="#361e65"/>
    <ellipse id="Ellipse_1-24" data-name="Ellipse 1" cx="4" cy="3.5" rx="4" ry="3.5" transform="translate(299.578 718.766)" fill="#361e65"/>
    <circle id="Ellipse_1-25" data-name="Ellipse 1" cx="3.5" cy="3.5" r="3.5" transform="translate(320.578 718.766)" fill="#361e65"/>
    <ellipse id="Ellipse_1-26" data-name="Ellipse 1" cx="4" cy="3.5" rx="4" ry="3.5" transform="translate(340.578 718.766)" fill="#361e65"/>
    <ellipse id="Ellipse_1-27" data-name="Ellipse 1" cx="4" cy="3.5" rx="4" ry="3.5" transform="translate(360.578 718.766)" fill="#361e65"/>
    <ellipse id="Ellipse_1-28" data-name="Ellipse 1" cx="4" cy="3.5" rx="4" ry="3.5" transform="translate(380.578 718.766)" fill="#361e65"/>
    <circle id="Ellipse_1-29" data-name="Ellipse 1" cx="4" cy="4" r="4" transform="translate(258.578 738.766)" fill="#361e65"/>
    <ellipse id="Ellipse_1-30" data-name="Ellipse 1" cx="3.5" cy="4" rx="3.5" ry="4" transform="translate(279.578 738.766)" fill="#361e65"/>
    <circle id="Ellipse_1-31" data-name="Ellipse 1" cx="4" cy="4" r="4" transform="translate(299.578 738.766)" fill="#361e65"/>
    <ellipse id="Ellipse_1-32" data-name="Ellipse 1" cx="3.5" cy="4" rx="3.5" ry="4" transform="translate(320.578 738.766)" fill="#361e65"/>
    <circle id="Ellipse_1-33" data-name="Ellipse 1" cx="4" cy="4" r="4" transform="translate(340.578 738.766)" fill="#361e65"/>
    <circle id="Ellipse_1-34" data-name="Ellipse 1" cx="4" cy="4" r="4" transform="translate(360.578 738.766)" fill="#361e65"/>
    <circle id="Ellipse_1-35" data-name="Ellipse 1" cx="4" cy="4" r="4" transform="translate(380.578 738.766)" fill="#361e65"/>
    <circle id="Ellipse_1-36" data-name="Ellipse 1" cx="4" cy="4" r="4" transform="translate(258.578 758.766)" fill="#361e65"/>
    <ellipse id="Ellipse_1-37" data-name="Ellipse 1" cx="3.5" cy="4" rx="3.5" ry="4" transform="translate(279.578 758.766)" fill="#361e65"/>
    <circle id="Ellipse_1-38" data-name="Ellipse 1" cx="4" cy="4" r="4" transform="translate(299.578 758.766)" fill="#361e65"/>
    <ellipse id="Ellipse_1-39" data-name="Ellipse 1" cx="3.5" cy="4" rx="3.5" ry="4" transform="translate(320.578 758.766)" fill="#361e65"/>
    <circle id="Ellipse_1-40" data-name="Ellipse 1" cx="4" cy="4" r="4" transform="translate(340.578 758.766)" fill="#361e65"/>
    <circle id="Ellipse_1-41" data-name="Ellipse 1" cx="4" cy="4" r="4" transform="translate(360.578 758.766)" fill="#361e65"/>
    <circle id="Ellipse_1-42" data-name="Ellipse 1" cx="4" cy="4" r="4" transform="translate(380.578 758.766)" fill="#361e65"/>
    <circle id="Ellipse_1-43" data-name="Ellipse 1" cx="4" cy="4" r="4" transform="translate(258.578 778.766)" fill="#361e65"/>
    <ellipse id="Ellipse_1-44" data-name="Ellipse 1" cx="3.5" cy="4" rx="3.5" ry="4" transform="translate(279.578 778.766)" fill="#361e65"/>
    <circle id="Ellipse_1-45" data-name="Ellipse 1" cx="4" cy="4" r="4" transform="translate(299.578 778.766)" fill="#361e65"/>
    <ellipse id="Ellipse_1-46" data-name="Ellipse 1" cx="3.5" cy="4" rx="3.5" ry="4" transform="translate(320.578 778.766)" fill="#361e65"/>
    <circle id="Ellipse_1-47" data-name="Ellipse 1" cx="4" cy="4" r="4" transform="translate(340.578 778.766)" fill="#361e65"/>
    <circle id="Ellipse_1-48" data-name="Ellipse 1" cx="4" cy="4" r="4" transform="translate(360.578 778.766)" fill="#361e65"/>
    <circle id="Ellipse_1-49" data-name="Ellipse 1" cx="4" cy="4" r="4" transform="translate(380.578 778.766)" fill="#361e65"/>
  </g>
</svg>
